# xmcd
#
# Track frame offsets:
#	150
#	14611
#	35427
#	48783
#	66888
#	83013
#	97714
#	115959
#	144533
#
# Disc length: 2119 seconds
#
# Revision: 0
# Processed by: cddbd v1.5.1PL0 Copyright (c) Steve Scherf et al.
# Submitted via: dBpowerAMP V4.0
#
DISCID=6b084509
DTITLE=Duke Tumatoe and the All Star Frogs - Naughty Child
DYEAR=1980
DGENRE=Blues
TTITLE0=Take Me Home
TTITLE1=Strong Man
TTITLE2=Brown Eyed Woman
TTITLE3=Slidin' On ICe
TTITLE4=Love To Play The Blues
TTITLE5=Naughty Child
TTITLE6=Fool Around With You
TTITLE7=Talk To Al
TTITLE8=Love Is A Three Letter Word
EXTD=
EXTT0=
EXTT1=
EXTT2=
EXTT3=
EXTT4=
EXTT5=
EXTT6=
EXTT7=
EXTT8=
PLAYORDER=
